<svg width="48" height="48" viewBox="0 0 48 48" fill="none" xmlns="http://www.w3.org/2000/svg">
<g clip-path="url(#clip0_737_540)">
<g clip-path="url(#clip1_737_540)">
<path d="M19.5678 12.4818C20.7019 13.6902 22.6004 13.7509 23.808 12.6172C25.0157 11.4836 25.0753 9.58495 23.9411 8.37649L21.7544 10.4291L19.5678 12.4818ZM4.59822 14.2269L1.63547 13.755C1.62433 13.8252 1.61568 13.8958 1.60956 13.9667L4.59822 14.2269ZM11.8268 34.2144L14.1502 32.318L14.1502 32.3179L11.8268 34.2144ZM33.7327 22.3552L31.3345 20.5515L27.7303 25.3464L30.1285 27.1501L31.9306 24.7526L33.7327 22.3552ZM37.3743 40.137L39.745 41.9767L39.745 41.9767L37.3743 40.137ZM21.7544 10.4291L23.9411 8.37649C19.5986 3.74973 14.5853 1.56994 9.94541 2.85751C5.28965 4.14949 2.46548 8.52398 1.63547 13.755L4.59822 14.2269L7.56097 14.6987C8.17625 10.8211 9.9711 9.07837 11.5526 8.63951C13.1499 8.19624 15.992 8.67193 19.5678 12.4818L21.7544 10.4291ZM4.59822 14.2269L1.60956 13.9667C0.946349 21.6367 4.21645 29.6337 9.50347 36.1109L11.8268 34.2144L14.1502 32.3179C9.52869 26.6561 7.0965 20.1584 7.58688 14.4871L4.59822 14.2269ZM37.3743 40.137L39.745 41.9767C41.2798 39.9979 41.9973 37.8515 42.0181 35.6839C42.0384 33.5664 41.3943 31.6148 40.5134 29.943C38.7811 26.6551 35.8828 23.9722 33.7327 22.3552L31.9306 24.7526L30.1285 27.1501C31.9375 28.5106 34.0578 30.5586 35.206 32.7379C35.7654 33.7996 36.0269 34.7657 36.0187 35.6228C36.011 36.4297 35.7656 37.3148 35.0036 38.2973L37.3743 40.137ZM11.8268 34.2144L9.50346 36.1109C12.9119 40.2866 18.3656 43.9633 23.8372 45.6182C29.2198 47.2461 35.724 47.1611 39.745 41.9767L37.3743 40.137L35.0036 38.2973C33.251 40.557 30.0063 41.2163 25.5709 39.8748C21.2245 38.5602 16.7913 35.5536 14.1502 32.318L11.8268 34.2144Z" fill="#107D57"/>
<path d="M26.4869 31.2041L34.6214 4.47389" stroke="black" stroke-width="3" stroke-linecap="round"/>
<path d="M45.6129 16.8213C35.627 9.04362 34.6214 3.97761 34.6214 3.97761L32.147 14.3993C36.811 22.4378 42.897 24.7955 42.897 24.7955L45.6129 16.8213Z" fill="#FF0000" stroke="black" stroke-width="2"/>
</g>
</g>
<defs>
<clipPath id="clip0_737_540">
<rect width="48" height="48" fill="white"/>
</clipPath>
<clipPath id="clip1_737_540">
<rect width="49" height="45" fill="white" transform="translate(0 2)"/>
</clipPath>
</defs>
</svg>
