<svg width="48" height="48" viewBox="0 0 48 48" fill="none" xmlns="http://www.w3.org/2000/svg">
<g clip-path="url(#clip0_737_540)">
<path d="M19.8154 11.5561C20.951 12.7626 22.8496 12.8201 24.0561 11.6846C25.2626 10.549 25.3201 8.65042 24.1846 7.44391L22 9.5L19.8154 11.5561ZM4.66644 13.3263L1.70371 12.8549C1.69251 12.9253 1.68382 12.9961 1.67766 13.0671L4.66644 13.3263ZM11.9698 33.4641L14.2913 31.5639L14.2913 31.5639L11.9698 33.4641ZM34.0814 21.5311L31.6814 19.7311L28.0814 24.5311L30.4814 26.3311L32.2814 23.9311L34.0814 21.5311ZM37.7814 39.4311L40.1495 41.273V41.273L37.7814 39.4311ZM22 9.5L24.1846 7.44391C19.8004 2.78566 14.7488 0.601087 10.0807 1.89287C5.39366 3.18989 2.54217 7.58539 1.70371 12.8549L4.66644 13.3263L7.62917 13.7977C8.25095 9.89001 10.0662 8.12236 11.6809 7.67554C13.3146 7.22347 16.1996 7.71434 19.8154 11.5561L22 9.5ZM4.66644 13.3263L1.67766 13.0671C1.008 20.7902 4.30997 28.8425 9.64833 35.3643L11.9698 33.4641L14.2913 31.5639C9.61865 25.8554 7.15937 19.3041 7.65523 13.5854L4.66644 13.3263ZM37.7814 39.4311L40.1495 41.273C41.6974 39.2827 42.4213 37.1236 42.4423 34.9427C42.4628 32.8124 41.813 30.849 40.9243 29.167C39.1764 25.8588 36.2516 23.1588 34.0814 21.5311L32.2814 23.9311L30.4814 26.3311C32.3112 27.7035 34.4569 29.77 35.6193 31.9699C36.1857 33.0421 36.4509 34.0183 36.4426 34.8849C36.4347 35.7009 36.1859 36.5961 35.4133 37.5893L37.7814 39.4311ZM11.9698 33.4641L9.64833 35.3643C13.0885 39.5671 18.5931 43.2674 24.1139 44.9325C29.5438 46.5701 36.097 46.4833 40.1495 41.273L37.7814 39.4311L35.4133 37.5893C33.6325 39.879 30.336 40.5421 25.8464 39.188C21.4478 37.8614 16.9632 34.8281 14.2913 31.5639L11.9698 33.4641Z" fill="#107D57"/>
<path d="M26.7814 30.4311L35 3.5" stroke="black" stroke-width="3" stroke-linecap="round"/>
<path d="M46.1052 15.9402C36.016 8.10408 35 3 35 3L32.5 13.5C37.2122 21.5989 43.3612 23.9744 43.3612 23.9744L46.1052 15.9402Z" fill="#FF0000" stroke="black" stroke-width="2"/>
</g>
<defs>
<clipPath id="clip0_737_540">
<rect width="48" height="48" fill="white"/>
</clipPath>
</defs>
</svg>
