<svg width="139" height="48" viewBox="0 0 139 48" fill="none" xmlns="http://www.w3.org/2000/svg">
<path d="M56.096 39.848C54.8587 39.848 53.664 39.7093 52.512 39.432C51.3707 39.1547 50.3467 38.712 49.44 38.104C48.544 37.496 47.8347 36.7067 47.312 35.736C46.7893 34.7547 46.528 33.56 46.528 32.152C46.528 30.6053 46.7787 29.256 47.28 28.104C47.792 26.9413 48.496 25.976 49.392 25.208C50.288 24.4293 51.3227 23.848 52.496 23.464C53.68 23.0693 54.944 22.872 56.288 22.872C57.504 22.872 58.6933 23.0267 59.856 23.336C61.0187 23.6453 62.064 24.1307 62.992 24.792C63.92 25.4533 64.656 26.312 65.2 27.368C65.7547 28.4133 66.032 29.6773 66.032 31.16C66.032 32.28 65.8027 33.3573 65.344 34.392C64.896 35.4267 64.24 36.3547 63.376 37.176C62.5227 37.9867 61.4827 38.632 60.256 39.112C59.04 39.6027 57.6533 39.848 56.096 39.848ZM55.952 36.312C57.04 36.312 57.9627 36.1467 58.72 35.816C59.4773 35.4747 60.0907 35.032 60.56 34.488C61.04 33.9333 61.3867 33.3307 61.6 32.68C61.824 32.0293 61.936 31.384 61.936 30.744C61.936 29.848 61.76 29.0907 61.408 28.472C61.0667 27.8427 60.608 27.336 60.032 26.952C59.4667 26.568 58.832 26.2907 58.128 26.12C57.424 25.9387 56.704 25.848 55.968 25.848C55.008 25.848 54.1013 26.056 53.248 26.472C52.3947 26.8773 51.7013 27.496 51.168 28.328C50.6453 29.1493 50.384 30.1893 50.384 31.448C50.384 32.472 50.592 33.352 51.008 34.088C51.4347 34.8133 52.064 35.368 52.896 35.752C53.728 36.1253 54.7467 36.312 55.952 36.312ZM73.7415 39.848C72.6962 39.848 71.8482 39.624 71.1975 39.176C70.5575 38.7387 70.0722 38.008 69.7415 36.984C69.4108 35.96 69.1868 34.5787 69.0695 32.84C69.0162 32.4027 68.9735 31.864 68.9415 31.224C68.9202 30.5733 68.9042 29.8747 68.8935 29.128C68.8935 28.3707 68.8988 27.6293 68.9095 26.904C68.9202 26.168 68.9308 25.4907 68.9415 24.872C68.9628 24.2427 68.9895 23.736 69.0215 23.352C69.0535 22.328 69.1228 21.4853 69.2295 20.824C69.3468 20.152 69.5495 19.6507 69.8375 19.32C70.1362 18.9893 70.5522 18.824 71.0855 18.824C71.7575 18.824 72.2215 19.032 72.4775 19.448C72.7335 19.8533 72.8615 20.536 72.8615 21.496C72.8615 21.8053 72.8508 22.2053 72.8295 22.696C72.8082 23.1867 72.7815 23.7307 72.7495 24.328C72.7175 24.9253 72.6802 25.544 72.6375 26.184C72.6055 26.8133 72.5735 27.4373 72.5415 28.056C72.5202 28.6747 72.4988 29.2453 72.4775 29.768C72.4562 30.2907 72.4455 30.7387 72.4455 31.112C72.4455 32.3813 72.4828 33.416 72.5575 34.216C72.6428 35.0053 72.7655 35.6187 72.9255 36.056C73.0855 36.4827 73.2775 36.7813 73.5015 36.952C73.7362 37.112 74.0028 37.192 74.3015 37.192C74.7068 37.192 75.0428 37.1173 75.3095 36.968C75.5868 36.808 75.8375 36.6533 76.0615 36.504C76.2855 36.344 76.5148 36.264 76.7495 36.264C77.0055 36.264 77.2028 36.3547 77.3415 36.536C77.4908 36.7173 77.5655 36.952 77.5655 37.24C77.5655 37.5813 77.4588 37.912 77.2455 38.232C77.0322 38.5413 76.7442 38.8133 76.3815 39.048C76.0295 39.2933 75.6242 39.4853 75.1655 39.624C74.7068 39.7733 74.2322 39.848 73.7415 39.848ZM81.6003 46.504C81.3016 46.504 81.0349 46.4293 80.8003 46.28C80.5763 46.1307 80.3789 45.8853 80.2083 45.544C80.0376 45.2133 79.8936 44.7707 79.7763 44.216C79.7016 43.7573 79.6323 43.2613 79.5683 42.728C79.5043 42.2053 79.4456 41.6667 79.3923 41.112C79.3496 40.568 79.3123 40.008 79.2803 39.432C79.2483 38.8667 79.2216 38.312 79.2003 37.768C79.1896 37.224 79.1842 36.696 79.1842 36.184C79.1842 33.9653 79.4989 32.0027 80.1283 30.296C80.7683 28.5787 81.7603 27.2347 83.1043 26.264C84.4483 25.2827 86.1869 24.792 88.3203 24.792C89.6749 24.792 90.8643 24.984 91.8883 25.368C92.9229 25.7413 93.7869 26.2747 94.4803 26.968C95.1736 27.6507 95.6909 28.4667 96.0323 29.416C96.3843 30.3547 96.5603 31.3947 96.5603 32.536C96.5603 33.688 96.3949 34.7227 96.0643 35.64C95.7443 36.5467 95.2323 37.32 94.5283 37.96C93.8243 38.6 92.9123 39.0853 91.7923 39.416C90.6723 39.7467 89.3069 39.912 87.6962 39.912C86.9496 39.912 86.3309 39.8533 85.8403 39.736C85.3496 39.6293 84.9603 39.5173 84.6723 39.4C84.3843 39.2933 84.1709 39.24 84.0323 39.24C83.8296 39.24 83.6749 39.304 83.5683 39.432C83.4723 39.56 83.4083 39.8373 83.3763 40.264C83.3443 40.4773 83.3229 40.7867 83.3123 41.192C83.3016 41.608 83.2856 42.0507 83.2643 42.52C83.2536 43 83.2429 43.4427 83.2323 43.848C83.2323 44.2533 83.2269 44.5627 83.2163 44.776C83.1736 45.4267 83.0136 45.8747 82.7363 46.12C82.4696 46.376 82.0909 46.504 81.6003 46.504ZM87.1203 37.032C88.6243 37.032 89.8136 36.84 90.6883 36.456C91.5629 36.072 92.1869 35.5173 92.5603 34.792C92.9443 34.056 93.1363 33.1813 93.1363 32.168C93.1363 31.3787 93.0029 30.6373 92.7363 29.944C92.4696 29.24 91.9949 28.6693 91.3123 28.232C90.6296 27.7947 89.6696 27.576 88.4323 27.576C87.5576 27.576 86.8056 27.7253 86.1763 28.024C85.5469 28.312 85.0349 28.728 84.6403 29.272C84.2563 29.816 83.9736 30.456 83.7923 31.192C83.6109 31.928 83.5203 32.7493 83.5203 33.656C83.5203 34.5627 83.6269 35.2613 83.8403 35.752C84.0536 36.232 84.4216 36.568 84.9443 36.76C85.4776 36.9413 86.2029 37.032 87.1203 37.032ZM100.594 39.8C100.188 39.8 99.8735 39.6827 99.6495 39.448C99.4255 39.224 99.2548 38.8667 99.1375 38.376C99.0842 38.1307 99.0362 37.7733 98.9935 37.304C98.9615 36.8347 98.9295 36.2747 98.8975 35.624C98.8655 34.9733 98.8388 34.2533 98.8175 33.464C98.8068 32.664 98.8015 31.8053 98.8015 30.888C98.8015 30.1947 98.8175 29.48 98.8495 28.744C98.8922 28.008 98.9508 27.2827 99.0255 26.568C99.1108 25.8427 99.2122 25.1387 99.3295 24.456C99.4468 23.7627 99.5802 23.1173 99.7295 22.52C99.8895 21.912 100.066 21.3627 100.258 20.872C100.535 20.2427 100.866 19.768 101.25 19.448C101.634 19.128 102.06 18.968 102.53 18.968C103.042 18.968 103.442 19.1547 103.73 19.528C104.018 19.8907 104.162 20.4347 104.162 21.16C104.162 21.544 104.146 21.9707 104.114 22.44C104.082 22.9093 104.039 23.384 103.986 23.864C103.932 24.344 103.879 24.808 103.826 25.256C103.783 25.704 103.74 26.104 103.698 26.456C103.666 26.808 103.65 27.0853 103.65 27.288C103.65 27.608 103.714 27.768 103.842 27.768C103.959 27.768 104.135 27.64 104.37 27.384C104.615 27.1173 104.956 26.8187 105.394 26.488C105.842 26.1467 106.423 25.848 107.138 25.592C107.852 25.3253 108.738 25.192 109.794 25.192C110.967 25.192 111.938 25.4107 112.706 25.848C113.484 26.2747 114.098 26.8507 114.546 27.576C114.994 28.2907 115.314 29.0853 115.506 29.96C115.698 30.8347 115.794 31.7093 115.794 32.584C115.794 33.0213 115.762 33.5067 115.698 34.04C115.644 34.5733 115.57 35.112 115.474 35.656C115.378 36.1893 115.266 36.6907 115.138 37.16C115.02 37.6293 114.887 38.0187 114.738 38.328C114.546 38.7013 114.284 38.9787 113.954 39.16C113.634 39.352 113.239 39.448 112.77 39.448C112.386 39.448 112.092 39.3627 111.89 39.192C111.687 39.0213 111.538 38.7973 111.442 38.52C111.399 38.296 111.388 37.9867 111.41 37.592C111.442 37.1867 111.479 36.7333 111.522 36.232C111.575 35.72 111.618 35.192 111.65 34.648C111.682 34.0933 111.687 33.56 111.666 33.048C111.655 32.4933 111.591 31.944 111.474 31.4C111.367 30.8453 111.191 30.3387 110.946 29.88C110.711 29.4107 110.375 29.0373 109.938 28.76C109.511 28.4827 108.967 28.344 108.306 28.344C107.484 28.344 106.759 28.488 106.13 28.776C105.511 29.0533 104.988 29.4107 104.562 29.848C104.146 30.2853 103.82 30.7387 103.586 31.208C103.362 31.6773 103.228 32.0933 103.186 32.456C103.132 33.16 103.079 33.8053 103.026 34.392C102.972 34.968 102.914 35.496 102.85 35.976C102.796 36.456 102.732 36.888 102.658 37.272C102.583 37.656 102.503 38.008 102.418 38.328C102.247 38.8187 102.007 39.1867 101.698 39.432C101.399 39.6773 101.031 39.8 100.594 39.8ZM120.262 45.192C119.792 45.192 119.419 45.0693 119.142 44.824C118.875 44.5787 118.742 44.28 118.742 43.928C118.742 43.5333 118.891 43.1707 119.19 42.84C119.499 42.52 119.91 42.232 120.422 41.976C120.976 41.624 121.531 41.24 122.086 40.824C122.64 40.408 123.147 39.992 123.606 39.576C124.075 39.16 124.448 38.7707 124.726 38.408C125.014 38.0453 125.158 37.7467 125.158 37.512C125.158 37.2987 125.003 37.0533 124.694 36.776C124.395 36.488 123.91 36.1413 123.238 35.736C122.683 35.3733 122.128 34.9307 121.574 34.408C121.03 33.8853 120.518 33.3093 120.038 32.68C119.558 32.0507 119.131 31.4053 118.758 30.744C118.384 30.0827 118.091 29.4373 117.878 28.808C117.675 28.168 117.574 27.576 117.574 27.032C117.574 26.68 117.654 26.3653 117.814 26.088C117.974 25.8 118.192 25.576 118.47 25.416C118.747 25.256 119.062 25.176 119.414 25.176C119.979 25.176 120.459 25.32 120.854 25.608C121.248 25.8853 121.611 26.3867 121.942 27.112C122.39 28.3493 122.902 29.496 123.478 30.552C124.054 31.608 124.619 32.4987 125.174 33.224C125.483 33.5973 125.798 33.9173 126.118 34.184C126.438 34.4507 126.694 34.584 126.886 34.584C127.174 34.584 127.451 34.44 127.718 34.152C127.995 33.864 128.224 33.56 128.406 33.24C128.992 32.312 129.494 31.3147 129.91 30.248C130.326 29.1707 130.736 28.0667 131.142 26.936C131.398 26.3813 131.696 25.9227 132.038 25.56C132.39 25.1973 132.795 25.016 133.254 25.016C133.915 25.016 134.379 25.1867 134.646 25.528C134.912 25.8693 135.046 26.3173 135.046 26.872C135.046 27.5227 134.934 28.2533 134.71 29.064C134.486 29.864 134.182 30.696 133.798 31.56C133.424 32.424 133.008 33.272 132.55 34.104C132.091 34.936 131.616 35.7147 131.126 36.44C130.635 37.1547 130.166 37.7733 129.718 38.296C129.024 39.096 128.267 39.9013 127.446 40.712C126.635 41.5333 125.803 42.28 124.95 42.952C124.107 43.6347 123.28 44.1787 122.47 44.584C121.67 44.9893 120.934 45.192 120.262 45.192Z" fill="black"/>
<g clip-path="url(#clip0_739_536)">
<path d="M20.5678 11.4818C21.702 12.6902 23.6004 12.7509 24.8081 11.6172C26.0157 10.4836 26.0753 8.58495 24.9411 7.37649L22.7544 9.42913L20.5678 11.4818ZM5.59825 13.2269L2.6355 12.755C2.62436 12.8252 2.61571 12.8958 2.60959 12.9667L5.59825 13.2269ZM12.8269 33.2144L15.1502 31.318L15.1502 31.3179L12.8269 33.2144ZM34.7327 21.3552L32.3345 19.5515L28.7303 24.3464L31.1285 26.1501L32.9306 23.7526L34.7327 21.3552ZM38.3744 39.137L40.745 40.9767L40.745 40.9767L38.3744 39.137ZM22.7544 9.42913L24.9411 7.37649C20.5987 2.74973 15.5853 0.569942 10.9454 1.85751C6.28968 3.14949 3.46551 7.52398 2.6355 12.755L5.59825 13.2269L8.561 13.6987C9.17628 9.82105 10.9711 8.07837 12.5526 7.63951C14.15 7.19624 16.9921 7.67193 20.5678 11.4818L22.7544 9.42913ZM5.59825 13.2269L2.60959 12.9667C1.94638 20.6367 5.21648 28.6337 10.5035 35.1109L12.8269 33.2144L15.1502 31.3179C10.5287 25.6561 8.09653 19.1584 8.58691 13.4871L5.59825 13.2269ZM38.3744 39.137L40.745 40.9767C42.2798 38.9979 42.9973 36.8515 43.0181 34.6839C43.0384 32.5664 42.3943 30.6148 41.5135 28.943C39.7812 25.6551 36.8828 22.9722 34.7327 21.3552L32.9306 23.7526L31.1285 26.1501C32.9375 27.5106 35.0578 29.5586 36.206 31.7379C36.7654 32.7996 37.027 33.7657 37.0187 34.6228C37.011 35.4297 36.7657 36.3148 36.0037 37.2973L38.3744 39.137ZM12.8269 33.2144L10.5035 35.1109C13.9119 39.2866 19.3657 42.9633 24.8372 44.6182C30.2198 46.2461 36.724 46.1611 40.745 40.9767L38.3744 39.137L36.0037 37.2973C34.251 39.557 31.0063 40.2163 26.5709 38.8748C22.2245 37.5602 17.7913 34.5536 15.1502 31.318L12.8269 33.2144Z" fill="#107D57"/>
<path d="M27.4869 30.2041L35.6214 3.47389" stroke="black" stroke-width="3" stroke-linecap="round"/>
<path d="M46.613 15.8213C36.627 8.04362 35.6214 2.97761 35.6214 2.97761L33.147 13.3993C37.811 21.4378 43.8971 23.7955 43.8971 23.7955L46.613 15.8213Z" fill="#FF0000" stroke="black" stroke-width="2"/>
</g>
<defs>
<clipPath id="clip0_739_536">
<rect width="49" height="45" fill="white" transform="translate(1 1)"/>
</clipPath>
</defs>
</svg>
